<svg height="464pt" viewBox="0 -40 464.05037 464" width="464pt" xmlns="http://www.w3.org/2000/svg"><path d="m18.769531 274.746094c-18.324219 18.304687-23.808593 45.847656-13.894531 69.777344 9.914062 23.929687 33.273438 39.523437 59.175781 39.5h400v-24h-400c-22.09375 0-40-17.90625-40-40 0-22.089844 17.90625-40 40-40h400v-24h-400c-16.976562 0-33.261719 6.734374-45.28125 18.722656zm0 0" fill="#2488ff"/><path d="m64.050781 128.023438c-35.347656 0-63.9999998 28.65625-63.9999998 64 0 35.347656 28.6523438 64 63.9999998 64h368v-24h-368c-22.09375 0-40-17.90625-40-40 0-22.089844 17.90625-40 40-40h368v-24zm0 0" fill="#ffcd00"/><path d="m50.769531 18.746094c-18.324219 18.304687-23.808593 45.847656-13.894531 69.777344 9.914062 23.929687 33.273438 39.523437 59.175781 39.5h368v-24h-368c-22.09375 0-40-17.90625-40-40 0-22.089844 17.90625-40 40-40h368v-24.0000005h-368c-16.976562 0-33.261719 6.7343745-45.28125 18.7226565zm0 0" fill="#d80027"/><path d="m440.050781 24.023438h-344c-22.09375 0-40 17.910156-40 40h384zm0 0" fill="#ffe6c6"/><path d="m56.050781 64.023438c0 22.09375 17.90625 40 40 40h344v-40zm0 0" fill="#ffdeb3"/><path d="m24.050781 192.023438c0 22.09375 17.90625 40 40 40h352v-40zm0 0" fill="#ffdaaa"/><path d="m416.050781 152.023438h-352c-22.09375 0-40 17.910156-40 40h392zm0 0" fill="#ffecd3"/><path d="m448.050781 280.023438h-384c-22.09375 0-40 17.910156-40 40h424zm0 0" fill="#ffe6c6"/><path d="m24.050781 320.023438c0 22.09375 17.90625 40 40 40h384v-40zm0 0" fill="#dfc9ad"/><g fill="#f1f2f2"><path d="m56.050781 312.023438h336v16h-336zm0 0"/><path d="m408.050781 312.023438h16v16h-16zm0 0"/><path d="m56.050781 184.023438h304v16h-304zm0 0"/><path d="m376.050781 184.023438h16v16h-16zm0 0"/><path d="m88.050781 56.023438h304v16h-304zm0 0"/><path d="m400.050781 56.023438h16v16h-16zm0 0"/></g></svg>