<svg height="427pt" viewBox="0 0 427 427.204" width="427pt" xmlns="http://www.w3.org/2000/svg"><g fill="#122436"><path d="m197.242188 60.664062v10c38.488281.003907 73.292968 15.589844 98.523437 40.8125 25.21875 25.230469 40.804687 60.03125 40.808594 98.519532-.003907 38.492187-15.589844 73.292968-40.808594 98.523437-25.230469 25.222657-60.035156 40.804688-98.523437 40.808594v10c82.476562-.003906 149.328124-66.855469 149.332031-149.332031-.003907-82.472656-66.855469-149.324219-149.332031-149.332032zm0 0"/><path d="m197.242188 349.328125c-1.617188 0-3.226563-.027344-4.835938-.082031l-.332031 9.996094c1.710937.054687 3.433593.085937 5.164062.085937v-10zm0 0"/><path d="m62.511719 245.648438c-.800781-3.035157-1.5-6.113282-2.101563-9.226563l-9.816406 1.882813c.636719 3.339843 1.390625 6.640624 2.25 9.894531zm0 0"/><path d="m77.371094 299.066406c2.019531 2.714844 4.128906 5.359375 6.328125 7.929688l7.597656-6.5c-2.050781-2.394532-4.019531-4.863282-5.90625-7.398438zm0 0"/><path d="m58.726562 225.191406c-.335937-3.121094-.574218-6.265625-.699218-9.445312l-9.992188.40625c.136719 3.402344.390625 6.777344.75 10.117187zm0 0"/><path d="m65.859375 256.5-9.425781 3.339844c1.128906 3.195312 2.367187 6.339844 3.707031 9.433594l9.175781-3.972657c-1.25-2.886719-2.40625-5.820312-3.457031-8.800781zm0 0"/><path d="m74.246094 275.527344-8.820313 4.707031c1.597657 2.988281 3.289063 5.917969 5.078125 8.78125l8.480469-5.300781c-1.667969-2.667969-3.25-5.402344-4.738281-8.1875zm0 0"/><path d="m74.199219 144.5625c1.488281-2.792969 3.070312-5.527344 4.738281-8.203125l-8.484375-5.292969c-1.789063 2.871094-3.480469 5.800782-5.078125 8.792969zm0 0"/><path d="m85.339844 126.96875c1.882812-2.535156 3.855468-5.003906 5.902344-7.40625l-7.601563-6.492188c-2.195313 2.570313-4.304687 5.21875-6.328125 7.9375zm0 0"/><path d="m98.964844 111.230469c2.238281-2.226563 4.550781-4.378907 6.933594-6.449219l-6.558594-7.546875c-2.554688 2.21875-5.03125 4.523437-7.429688 6.90625zm0 0"/><path d="m65.8125 163.621094c1.054688-2.988282 2.210938-5.929688 3.460938-8.824219l-9.179688-3.964844c-1.339844 3.101563-2.578125 6.253907-3.710938 9.460938zm0 0"/><path d="m62.476562 174.472656-9.671874-2.539062c-.855469 3.257812-1.601563 6.554687-2.242188 9.894531l9.824219 1.878906c.59375-3.117187 1.292969-6.195312 2.089843-9.234375zm0 0"/><path d="m58.714844 194.9375-9.945313-1.066406c-.359375 3.339844-.609375 6.714844-.742187 10.113281l9.992187.398437c.125-3.179687.359375-6.328124.695313-9.445312zm0 0"/><path d="m148.320312 351.132812c3.1875 1.101563 6.417969 2.101563 9.699219 2.992188l2.621094-9.652344c-3.058594-.828125-6.074219-1.761718-9.042969-2.789062zm0 0"/><path d="m91.976562 315.921875c2.398438 2.382813 4.878907 4.683594 7.433594 6.902344l6.554688-7.550781c-2.386719-2.070313-4.699219-4.222657-6.9375-6.449219zm0 0"/><path d="m181.070312 348.402344c-3.152343-.363282-6.273437-.835938-9.359374-1.40625l-1.820313 9.832031c3.308594.613281 6.65625 1.117187 10.035156 1.507813zm0 0"/><path d="m171.585938 73.023438c3.082031-.574219 6.203124-1.046876 9.355468-1.414063l-1.15625-9.933594c-3.378906.394531-6.722656.898438-10.03125 1.515625zm0 0"/><path d="m127.839844 342.257812c2.988281 1.570313 6.039062 3.042969 9.144531 4.414063l4.039063-9.148437c-2.894532-1.277344-5.738282-2.652344-8.53125-4.121094zm0 0"/><path d="m151.476562 78.355469c2.96875-1.03125 5.984376-1.964844 9.039063-2.800781l-2.628906-9.648438c-3.277344.894531-6.507813 1.898438-9.691407 3.003906zm0 0"/><path d="m122.578125 92.339844-5.363281-8.441406c-2.855469 1.816406-5.648438 3.730468-8.367188 5.730468l5.925782 8.054688c2.535156-1.867188 5.140624-3.652344 7.804687-5.34375zm0 0"/><path d="m140.914062 82.519531-4.042968-9.144531c-3.097656 1.371094-6.144532 2.847656-9.128906 4.417969l4.660156 8.847656c2.785156-1.46875 5.625-2.84375 8.511718-4.121094zm0 0"/><path d="m108.921875 330.425781c2.722656 2 5.519531 3.910157 8.378906 5.726563l5.359375-8.441406c-2.671875-1.695313-5.277344-3.480469-7.820312-5.347657zm0 0"/><path d="m192.410156 70.75c1.605469-.054688 3.214844-.085938 4.832032-.085938v-10c-1.730469 0-3.457032.03125-5.171876.089844zm0 0"/><path d="m51.628906 92.445312c1.019532-1.265624 2.058594-2.515624 3.109375-3.75l-7.609375-6.484374c-1.109375 1.300781-2.199218 2.613281-3.273437 3.941406zm0 0"/><path d="m171.558594 24.609375c3.113281-.425781 6.246094-.777344 9.40625-1.050781l-.859375-9.960938c-3.324219.285156-6.628907.65625-9.902344 1.105469zm-20.414063 3.972656c3.046875-.773437 6.125-1.46875 9.226563-2.089843l-1.957032-9.804688c-3.269531.65625-6.511718 1.386719-9.722656 2.199219zm-19.84375 6.226563c2.945313-1.105469 5.921875-2.144532 8.933594-3.105469l-3.039063-9.527344c-3.175781 1.015625-6.316406 2.105469-9.417968 3.273438zm-19.023437 8.410156c2.804687-1.433594 5.652344-2.792969 8.53125-4.085938l-4.085938-9.125c-3.039062 1.359376-6.035156 2.792969-8.992187 4.304688zm-17.976563 10.476562c2.632813-1.738281 5.308594-3.40625 8.027344-5.011718l-5.082031-8.613282c-2.863282 1.691407-5.683594 3.449219-8.453125 5.277344zm-16.703125 12.40625c2.421875-2.015624 4.894532-3.972656 7.421875-5.871093l-6.003906-7.996094c-2.65625 1.996094-5.265625 4.054687-7.816406 6.179687zm-15.238281 14.179688c2.1875-2.273438 4.433594-4.492188 6.730469-6.65625l-6.847656-7.285156c-2.421876 2.277344-4.785157 4.613281-7.089844 7.007812zm0 0"/><path d="m192.371094 22.925781c1.617187-.042969 3.242187-.0625 4.871094-.0625v-10c-1.714844 0-3.425782.019531-5.128907.066407zm0 0"/><path d="m17.535156 157.617188c.453125-1.5625.925782-3.113282 1.421875-4.652344l-4.761719-1.523438 4.761719 1.519532c2.933594-9.183594 6.5625-18.0625 10.816407-26.566407 6.066406-12.125 13.410156-23.503906 21.855468-33.953125l-7.773437-6.285156c-8.898438 11.003906-16.632813 22.984375-23.027344 35.765625-4.480469 8.960937-8.304687 18.3125-11.398437 27.996094-.519532 1.625-1.019532 3.261719-1.496094 4.902343zm0 0"/><path d="m389.789062 167.527344-.027343-.121094c-.082031-.371094-.164063-.746094-.246094-1.113281-.011719-.042969-.019531-.085938-.03125-.125-.082031-.367188-.167969-.730469-.25-1.097657-.011719-.046874-.023437-.089843-.03125-.136718-1.03125-4.410156-2.214844-8.765625-3.535156-13.054688l-.007813-.019531c-.371094-1.214844-.757812-2.421875-1.152344-3.625-.011718-.027344-.019531-.050781-.027343-.078125-.121094-.359375-.242188-.722656-.363281-1.085938-.019532-.058593-.039063-.117187-.058594-.179687-.113282-.328125-.222656-.660156-.339844-.992187l-.070312-.207032c-.117188-.339844-.234376-.675781-.351563-1.015625-.019531-.046875-.035156-.097656-.054687-.144531-.644532-1.835938-1.316407-3.660156-2.015626-5.46875l-9.328124 3.597656c.378906.980469.746093 1.96875 1.109374 2.957032.136719.371093.273438.746093.40625 1.121093.011719.027344.023438.054688.03125.078125.117188.335938.238282.671875.355469 1.007813l.074219.214843c.101562.292969.203125.585938.308594.882813.027344.085937.058594.171875.089844.257813.097656.285156.195312.570312.289062.855468.03125.085938.058594.171875.089844.261719.101562.304687.203125.605469.304687.910156.019531.0625.039063.128907.0625.1875.371094 1.132813.734375 2.265625 1.085938 3.40625 1.148437 3.722657 2.179687 7.496094 3.097656 11.316407.089844.363281.175781.726562.257813 1.089843.011718.042969.019531.085938.03125.132813.082031.347656.160156.699218.242187 1.046875.007813.035156.015625.066406.023437.101562.082032.367188.164063.734375.246094 1.101563.003906.019531.007813.039062.011719.054687.082031.386719.167969.769531.25 1.15625 0 .003907 0 .007813.003906.015625.335938 1.582032.652344 3.175782.949219 4.777344.710938 3.804688 1.300781 7.652344 1.773438 11.535156.390624 3.207032.699218 6.433594.925781 9.6875.269531 3.859375.421875 7.75.449219 11.671875.003906.5.007812 1.003907.007812 1.503907 0 .375-.003906.746093-.003906 1.117187 0 .136719-.003906.273437-.003906.410156-.003907.242188-.003907.484375-.007813.726563 0 .15625-.003906.316406-.003906.472656-.003907.214844-.007813.433594-.011719.648438 0 .160156-.003906.320312-.007812.480468-.003907.226563-.011719.453125-.015626.683594-.003906.148438-.007812.292969-.011718.441406-.007813.296875-.015625.589844-.023438.886719l-.007812.199219c-.023438.777344-.054688 1.554687-.085938 2.328125-.007812.179687-.019531.363281-.027344.546875-.023437.476562-.046874.957031-.074218 1.4375-.011719.179687-.019532.359375-.03125.539062-.011719.25-.027344.503906-.042969.753906-.011719.191407-.027344.382813-.039063.574219-.015624.242188-.03125.488281-.046874.734375-.015626.191406-.027344.386719-.042969.578125-.015625.257813-.035157.511719-.054688.765625-.011719.15625-.023437.308594-.035156.464844-.042969.558594-.089844 1.117188-.140625 1.671875-.007812.109375-.015625.222656-.027344.332031-.019531.253906-.042968.503906-.070312.753906-.015625.195313-.035156.390626-.050782.585938-.023437.226562-.046874.449219-.066406.675781-.023437.226563-.046875.453125-.070312.679688-.023438.226562-.050782.457031-.074219.683593-.011719.132813-.027344.265626-.042969.398438-.03125.265625-.058594.535156-.089844.800781-.011718.125-.027343.25-.042968.375-.027344.269531-.0625.535157-.09375.800781-.015625.125-.03125.246094-.046875.371094-.03125.269532-.066407.539063-.097657.808594-.019531.144531-.039062.292969-.058593.4375-.03125.25-.0625.496094-.09375.742188-.019531.148437-.039063.300781-.058594.449218-.035156.242188-.066406.484375-.101563.726563-.027343.179687-.050781.359375-.078124.539062-.027344.210938-.058594.421875-.089844.632813-.023438.175781-.050782.351562-.078125.527344-.03125.210937-.058594.425781-.09375.632812v.011719c-.023438.15625-.046875.316406-.074219.472656-.035156.21875-.066406.441406-.105469.660156-.007812.0625-.019531.125-.027343.183594-.609376 3.808594-1.332032 7.578125-2.164063 11.304687-.0625.273438-.125.550782-.1875.824219-.027344.109375-.050781.21875-.074219.328125-.363281 1.566406-.742187 3.125-1.144531 4.679688-.011719.042968-.023437.089844-.035156.136718-.089844.347657-.179688.691407-.269531 1.035157-.011719.035156-.019532.074219-.027344.109375-.09375.351562-.1875.703125-.28125 1.054687-.015625.050781-.03125.097657-.042969.148438-.089844.328125-.179687.652343-.269531.980469-1.0625 3.820312-2.246094 7.59375-3.546875 11.3125-.109375.320312-.222657.636718-.335938.957031-.023437.066406-.042969.128906-.070312.195312-.109375.308594-.21875.613281-.328125.921875-.027344.074219-.054688.152344-.082032.226563-.109374.304687-.222656.609375-.335937.910156-.023437.074219-.050781.148437-.078125.21875-.113281.308594-.230469.617187-.347656.929687-.023438.058594-.046875.121094-.070313.183594-.128906.339844-.257812.679688-.390625 1.019532l-.03125.078124c-.433594 1.128907-.878906 2.253907-1.335937 3.371094-1.488281 3.644532-3.085938 7.230469-4.792969 10.757813-.152344.3125-.308594.628906-.460938.941406-.042968.085937-.082031.167969-.125.253906-.132812.269531-.265624.539063-.402343.8125-.046875.09375-.09375.1875-.140625.28125-.128906.257813-.257813.511719-.386719.765625-.054687.105469-.109375.214844-.164063.320313-.125.246093-.25.492187-.375.734375-.0625.117187-.121093.234375-.179687.347656-.117187.230469-.238281.457031-.355469.683594-.066406.125-.132812.25-.199218.375-.121094.238281-.246094.46875-.371094.707031-.058594.113281-.117188.222656-.175782.332031-.125.234375-.25.46875-.378906.703125-.0625.117188-.128906.238281-.195312.359375-.125.230469-.246094.457032-.375.6875-2.023438 3.703125-4.171875 7.328125-6.4375 10.871094-.070313.109375-.136719.214844-.207032.324219-.140624.21875-.28125.433593-.417968.652343-.070313.105469-.136719.210938-.207032.3125-.144531.226563-.292968.453126-.441406.675782-.0625.097656-.125.195312-.1875.289062-.144531.21875-.289062.4375-.4375.65625-.070312.109375-.140625.214844-.210937.320313-.148438.21875-.292969.4375-.441407.65625-.0625.09375-.125.183593-.191406.28125-.15625.226562-.308594.457031-.464844.6875-.058593.082031-.113281.164062-.171874.246093-.164063.242188-.332032.484376-.5.726563-.039063.054687-.078126.109375-.117188.164063-.183594.265624-.367188.53125-.550781.792968-.019531.023438-.035157.046875-.050781.070313-3.21875 4.582031-6.640626 9.011719-10.246094 13.277343-.011719.011719-.019532.027344-.03125.039063-.234375.273437-.464844.546875-.703125.824219-.007813.007812-.015625.019531-.023438.03125-3.160156 3.691406-6.464843 7.257812-9.898437 10.691406-.449219.453125-.902344.898438-1.355469 1.34375-.113281.113281-.226563.222656-.339844.332031-.171875.167969-.34375.335938-.515625.5-.105468.101563-.207031.203125-.3125.304688-.179687.171875-.359375.34375-.542968.519531-.089844.085938-.179688.171875-.269532.257812-.195312.1875-.394531.375-.589844.558594-.078124.070313-.152343.144532-.226562.214844-.207031.195312-.417969.390625-.625.585938-.066406.054687-.128906.117187-.191406.175781-.222656.207031-.449219.414062-.675782.621093-.035156.035157-.070312.066407-.105468.101563-3.828125 3.515625-7.800782 6.875-11.910156 10.0625-.011719.007813-.019532.019531-.03125.027344-.273438.210937-.546876.421875-.820313.628906-.035156.027344-.074219.058594-.109375.085937-.257812.199219-.523438.398438-.785156.597657-.039063.03125-.082032.0625-.125.09375-.265625.203125-.535156.40625-.804688.609375-.023437.015625-.042968.035156-.070312.050781-.28125.210937-.566406.421875-.855469.636719-.003906.003906-.011719.007812-.015625.011718-4.453125 3.289063-9.054688 6.382813-13.792969 9.269532-.117187.074218-.234375.144531-.351562.214844-.207031.125-.414063.25-.621094.375-.132813.082031-.261719.160156-.394531.238281-.1875.113281-.375.222656-.5625.335937-.160156.09375-.320313.191406-.480469.285156-.179687.101563-.355469.207032-.53125.308594-.152344.089844-.304687.179688-.453125.265625-.1875.109375-.375.214844-.5625.324219-.15625.089844-.316406.183594-.472656.273438-.175782.097656-.351563.199218-.527344.296874-.183594.105469-.371094.210938-.554688.3125-.148437.085938-.292968.167969-.445312.253907-.238281.132812-.476562.265625-.714844.398437l-.292968.164063c-.308594.167969-.617188.335937-.921876.503906-3.464843 1.886719-6.992187 3.664063-10.585937 5.335937-.324219.148438-.648437.300782-.972656.449219l-.175781.078125c-.300782.140625-.601563.277344-.90625.414063-.070313.03125-.136719.0625-.203126.089843-.300781.136719-.597656.269532-.894531.398438l-.1875.085938c-.304687.132812-.613281.265624-.917969.398437-.0625.027344-.125.054687-.1875.082031-.304687.132813-.613281.265625-.921874.398438-.054688.023437-.113282.046875-.175782.074218-.3125.132813-.628906.265626-.945312.398438-.050782.023438-.101563.042969-.152344.0625-.308594.132812-.617188.257812-.925781.386719-.070313.027343-.140625.058593-.210938.085937-.300781.125-.605469.25-.910156.371094-3.640625 1.472656-7.34375 2.835938-11.097656 4.082031-1.90625.632813-3.824219 1.234375-5.753907 1.804688-.0625.019531-.125.035156-.1875.058593-.308593.089844-.621093.179688-.929687.269532-.097656.027344-.199219.058594-.296875.085937-.285156.082031-.574219.164063-.863281.246094-.097657.027344-.195313.054687-.292969.082031-.289062.082032-.578125.160156-.863281.242188-3.886719 1.070312-7.824219 2.015625-11.808594 2.839844-.175781.035156-.355469.074218-.53125.109374-.207031.042969-.414063.082032-.617187.125-.195313.035157-.386719.074219-.578126.113282-.1875.035156-.375.074218-.5625.109375-.207031.039062-.414062.078125-.621093.117187-.1875.035156-.375.074219-.5625.105469-.199219.035156-.394531.074219-.589844.109375-.199219.035156-.398437.070312-.597656.109375-.1875.03125-.375.066406-.566407.101563-.203124.035156-.402343.070312-.605468.105468-.191406.03125-.378906.066406-.570313.097656-.203125.035157-.40625.070313-.613281.101563-.1875.035156-.375.0625-.5625.09375-.203125.035156-.410156.066406-.617188.101563-.171874.027343-.34375.050781-.511718.082031-4.078125.640625-8.203125 1.148437-12.363282 1.523437-.148437.011719-.296874.023438-.445312.039063-.25.023437-.503906.042969-.757812.0625-.136719.011719-.269532.023437-.40625.035156-.265626.019531-.535157.042969-.800782.0625-.128906.011719-.253906.019531-.378906.027344-.269531.019531-.535156.039062-.804688.058593-.144531.011719-.289062.019532-.433593.03125-.253907.015626-.511719.03125-.765625.046876-.136719.011718-.277344.019531-.414063.027343-.261719.015625-.523437.03125-.789062.046875-.136719.007813-.273438.019532-.410157.023438-.269531.015625-.535156.03125-.800781.042968-.128906.007813-.257812.011719-.386719.019532-.269531.011718-.539062.027344-.808593.039062-.136719.003906-.273438.011719-.410157.015625-2.691406.113281-5.394531.175781-8.113281.175781-1.511719 0-3.019531-.019531-4.523437-.054687-.195313-.003906-.394532-.011719-.59375-.015625-.222656-.007812-.441406-.011719-.664063-.019531-.167969-.003907-.335937-.007813-.503906-.015625-.242187-.007813-.484375-.015625-.722656-.023438-.164063-.007812-.328125-.015625-.488281-.019531-.230469-.011719-.464844-.019531-.695313-.027344-.179687-.007812-.359375-.015625-.539063-.023437-.226562-.011719-.453124-.023438-.679687-.035156-.164063-.007813-.328125-.015626-.492187-.023438-.238282-.011719-.480469-.023438-.722657-.039062-.152343-.007813-.308593-.019532-.460937-.027344-.257813-.011719-.515625-.027344-.769532-.042969l-.390624-.027344c-.269532-.015625-.539063-.035156-.808594-.050781-.128906-.007812-.257813-.019531-.386719-.03125-4.203125-.296875-8.367187-.734375-12.488281-1.304688-.160156-.023437-.324219-.042968-.484375-.066406-.226563-.03125-.453125-.066406-.683594-.097656-.167969-.027344-.335937-.050781-.503906-.074219-.222657-.035156-.445313-.066406-.671875-.101562-.171875-.027344-.34375-.050781-.511719-.078125-.226563-.035156-.449219-.070313-.671875-.105469-.167969-.023437-.339844-.050781-.507812-.078125-.222657-.035156-.445313-.070312-.667969-.109375-.167969-.027344-.339844-.054687-.507813-.082031-.21875-.039063-.441406-.074219-.660156-.113282-.179688-.03125-.359375-.0625-.539062-.09375-.207032-.035156-.417969-.070312-.625-.109374-.183594-.03125-.367188-.066407-.550782-.101563-.207031-.035156-.414062-.074219-.617187-.109375-.199219-.039062-.394531-.074219-.589844-.109375-4.019531-.753906-7.988281-1.636719-11.90625-2.640625-.28125-.070312-.5625-.144531-.839844-.21875-.097656-.023438-.203125-.050781-.300781-.078125-1.949219-.511719-3.882812-1.054687-5.808594-1.628906-.375-.113281-.75-.222657-1.121094-.335938-.070312-.023437-.140624-.042969-.207031-.066406-.3125-.09375-.625-.191406-.9375-.289063-3.777343-1.179687-7.503906-2.476562-11.175781-3.882812-.328125-.128906-.65625-.253906-.984375-.382812-.050781-.019532-.101563-.039063-.15625-.058594-.324219-.128906-.652344-.253906-.976563-.386719-.050781-.015625-.09375-.039063-.140624-.054687-.332032-.132813-.667969-.265626-1-.402344-.035157-.015625-.074219-.03125-.109376-.046875-.359374-.144531-.71875-.292969-1.074218-.4375l-.019532-.007813c-.359374-.148437-.722656-.300781-1.078124-.453125-.019532-.007812-.035157-.011719-.050782-.019531-1.117187-.472656-2.230468-.953125-3.335937-1.441406-3.652344-1.625-7.242188-3.363282-10.765625-5.207032-.238282-.125-.480469-.253906-.722656-.378906-.109376-.058594-.21875-.121094-.332032-.179687-.234375-.125-.464844-.25-.699218-.371094-.128907-.070313-.253907-.140625-.382813-.207031-.21875-.121094-.441406-.238282-.664063-.359375-.121093-.066407-.242187-.132813-.359374-.199219-.230469-.125-.460938-.25-.6875-.378906-.121094-.066406-.238282-.132813-.359376-.199219-.21875-.125-.433593-.242187-.648437-.367187-.136719-.074219-.269531-.148438-.402344-.222657-.207031-.117187-.410156-.234375-.613281-.347656-.140625-.082031-.285156-.164063-.425781-.242187-.1875-.109376-.371094-.21875-.558594-.324219-.15625-.09375-.316406-.183594-.472656-.277344-.160157-.089844-.320313-.183594-.476563-.277344-3.703125-2.171875-7.328125-4.46875-10.863281-6.882812-.082031-.054688-.160156-.109375-.242187-.164063-.246094-.167968-.492188-.335937-.734376-.507812-.066406-.042969-.128906-.085938-.191406-.128906-.25-.175782-.5-.347657-.75-.523438-.066406-.046875-.132812-.089844-.195312-.136719-.25-.175781-.496094-.351562-.742188-.523437-.0625-.046875-.125-.089844-.1875-.132813-.253906-.183593-.507812-.363281-.765625-.546875-.042969-.035156-.089843-.066406-.132812-.097656-.269531-.195312-.539063-.386719-.804688-.585938-.023437-.015624-.050781-.035156-.074219-.050781-4.824218-3.523437-9.476562-7.269531-13.9375-11.226562-.007812-.007813-.015624-.015625-.027343-.023438-.265625-.238281-.53125-.476562-.796875-.714843-.019532-.019532-.042969-.039063-.066406-.058594-.253907-.226563-.507813-.457032-.761719-.6875-.03125-.027344-.066407-.058594-.097657-.089844-.25-.230469-.5-.457031-.753906-.6875-.011718-.011719-.027344-.023438-.042968-.039062-1.917969-1.761719-3.796876-3.566407-5.640626-5.40625-1.824218-1.828126-3.613281-3.695313-5.363281-5.59375-.042969-.046876-.085937-.09375-.125-.136719-.21875-.238281-.4375-.476563-.652343-.714844-.035157-.039063-.070313-.074219-.101563-.113281-.230469-.253906-.464844-.507813-.691406-.761719-.011719-.011719-.023438-.027344-.035157-.039063-.238281-.269531-.480468-.535156-.71875-.804687-.007812-.011719-.015624-.019531-.023437-.03125-3.964844-4.464844-7.714844-9.121094-11.242187-13.953125l-.035157-.050781c-.203125-.28125-.40625-.5625-.613281-.84375-.023438-.03125-.042969-.066407-.070312-.097657-.195313-.273437-.390626-.550781-.589844-.828124-.019532-.03125-.042969-.0625-.066406-.09375-.199219-.28125-.394532-.558594-.59375-.839844-.015626-.027344-.035157-.050782-.050782-.078125-.199218-.277344-.394531-.558594-.585937-.839844-.03125-.042969-.058594-.082031-.089844-.125-3.113281-4.5-6.035156-9.140625-8.753906-13.914063-.105469-.183593-.210938-.371093-.3125-.554687-.085938-.148437-.167969-.296875-.253907-.445313-.109374-.199218-.222656-.402343-.335937-.601562-.078125-.140625-.15625-.28125-.234375-.421875-.117188-.210937-.234375-.421875-.347656-.628906-.070313-.128907-.140625-.257813-.210938-.386719-.125-.226562-.246094-.457031-.371094-.679688-.0625-.121093-.128906-.234374-.1875-.355468-.132812-.238282-.261718-.480469-.386718-.722656-.058594-.105469-.109375-.207032-.167969-.3125-.144531-.273438-.289063-.546876-.429687-.824219-.039063-.070313-.074219-.140625-.113282-.210938-.171875-.332031-.34375-.660156-.515625-.996093-.007812-.019532-.015625-.035157-.023437-.050782-.183594-.359375-.367188-.71875-.550782-1.078125-1.761718-3.492187-3.417968-7.046875-4.960937-10.660156-.140625-.324219-.277344-.652344-.414063-.976563-.019531-.046874-.039062-.09375-.058593-.136718-.132813-.320313-.269531-.640625-.402344-.960938-.023437-.0625-.046875-.121094-.074219-.179687-.125-.304688-.25-.609375-.375-.917969l-.082031-.203125c-.121094-.300781-.242187-.601563-.363281-.902344-.03125-.078125-.058594-.152343-.089844-.226562-.117188-.292969-.230469-.585938-.347656-.882813-.027344-.074218-.058594-.152344-.089844-.230468-.117188-.304688-.238281-.609376-.351562-.910157-.027344-.066406-.054688-.136719-.078126-.203125-.117187-.308594-.234374-.621094-.351562-.933594-.023438-.058593-.046875-.117187-.070312-.179687-.121094-.324219-.242188-.648437-.359376-.976563-1.355468-3.671874-2.597656-7.402343-3.726562-11.179687-.460938-1.546875-.902344-3.101563-1.324219-4.664063-.007812-.023437-.011719-.050781-.019531-.078124-.09375-.351563-.1875-.703126-.28125-1.058594-.023438-.089844-.046875-.179688-.070312-.269532-.074219-.285156-.148438-.574218-.222657-.859374-.035156-.132813-.066406-.261719-.101562-.394532-.066407-.257812-.132813-.515625-.195313-.777344-.03125-.121093-.058594-.242187-.089844-.363281-.0625-.261719-.128906-.523437-.195312-.785156-.960938-3.960937-1.796875-7.972656-2.5-12.023437-.023438-.152344-.050781-.300782-.078125-.453126-.039063-.242187-.082031-.480468-.121094-.722656-.027343-.15625-.050781-.308594-.074219-.460937-.039062-.234375-.078124-.464844-.117187-.695313-.023437-.160156-.050781-.320312-.074219-.480468-.035156-.234376-.070312-.464844-.109375-.699219-.023437-.160157-.046875-.320313-.074219-.484375-.035156-.234375-.070312-.464844-.101562-.699219-.023438-.152344-.046875-.308594-.070312-.464844-.035157-.242187-.070313-.488281-.105469-.734375-.019531-.140625-.039063-.28125-.058594-.421875-.035156-.253906-.070313-.503906-.105469-.757812-.019531-.144531-.039062-.292969-.058594-.4375-.03125-.25-.066406-.5-.097656-.75-.015625-.144531-.035156-.289063-.054687-.433594-.515625-4.125-.902344-8.296875-1.144531-12.507813-.007813-.144531-.019532-.292968-.027344-.441406-.015625-.253906-.027344-.511718-.042969-.765625-.007813-.140625-.011719-.28125-.019531-.421875-.015625-.25-.027344-.503906-.039063-.757812-.007812-.160156-.011719-.320313-.019531-.480469-.011719-.242187-.019531-.484375-.03125-.722656-.007812-.15625-.011719-.304688-.019531-.460938-.007813-.25-.015625-.503906-.023438-.757812-.003906-.152344-.011719-.304688-.015625-.457031-.007812-.242188-.011718-.480469-.019531-.71875-.003906-.175782-.007813-.347657-.015625-.519532-.003906-.226562-.007812-.457031-.015625-.683594-.003906-.183593-.007813-.371093-.007813-.554687-.003906-.207031-.007812-.417969-.011718-.625 0-.203125-.003906-.40625-.007813-.609375-.007812-.695312-.011719-1.390625-.011719-2.085938h-10c0 .613282.003907 1.226563.011719 1.84375h-.003906c.003906.140626.003906.28125.007813.421876 0 .167968.003906.335937.003906.503906.003906.261718.007812.523437.011718.789062.003907.164063.007813.324219.011719.488282.003907.265624.011719.535156.015625.800781.003906.152343.011719.296875.015625.449219.007813.28125.015625.5625.023438.839843.003906.144531.007812.289063.011719.433594.011718.277344.019531.550781.027343.824219.007813.152344.015625.300781.019531.453125.011719.269531.023438.542969.035157.8125.003906.15625.011719.3125.019531.464843.011719.265626.023438.527344.039062.792969.007813.160157.015626.316407.023438.472657.011719.269531.027344.539062.042969.804687.007812.148437.015625.300781.027343.445313.007813.148437.015626.296874.023438.445312h.003906c.25 4.113281.625 8.199219 1.121094 12.242188.019531.160156.039062.324218.058594.488281.023437.15625.042968.316406.0625.476562.03125.257813.066406.519531.101562.777344.019532.15625.042969.3125.0625.464844.03125.257812.070313.515625.105469.769531.023437.167969.046875.332031.070313.496094.035156.238281.066406.476562.101562.714844.027344.183593.054688.371093.082031.554687.035157.226563.066407.457031.101563.683594.027344.1875.058594.378906.085937.566406.035157.21875.066407.441406.105469.660156.03125.203125.0625.402344.09375.605469.035156.207031.066406.414062.101562.617188.035157.21875.070313.433593.109376.648437.03125.195313.0625.386719.097656.582031.035156.21875.074218.441406.113281.664063.019531.121093.042969.242187.0625.363281.714844 4.058594 1.554687 8.070312 2.515625 12.039062.007812.035157.015625.070313.027344.109376.074218.304687.148437.605468.222656.910156.027344.109375.054688.21875.082031.328125.074219.300781.152344.605469.230469.910156.023438.105469.050781.207031.078125.3125.082031.316406.164063.628906.246094.945313.023437.089843.046875.183593.070312.273437 1.589844 6.046875 3.460938 11.976563 5.597657 17.777344.015624.050781.03125.097656.050781.144531.121093.324219.238281.648438.363281.972656.03125.085938.0625.171875.097656.261719.113282.304687.230469.613281.347656.917969.035157.09375.070313.183594.105469.277344.113281.292968.222657.582031.335938.875.046875.109374.089843.222656.132812.335937.109375.273437.214844.546875.324219.824219.046875.113281.09375.230468.136719.347656.113281.28125.226562.566406.339843.847656.042969.097656.078126.195313.121094.292969.117188.292969.242188.589844.363282.886719.039062.089844.074218.179687.113281.273437.125.296875.25.597657.371093.894531.039063.085938.074219.175782.109376.261719.136718.320313.269531.636719.40625.953125.019531.042969.039062.09375.058593.136719 1.617188 3.777344 3.347657 7.488281 5.1875 11.136719.011719.019531.019531.039062.03125.058594.175781.347656.351563.695312.527344 1.039062.058594.113281.117187.226562.175781.339844.132813.253906.261719.511718.398438.769531.066406.125.128906.25.195312.375.125.242187.253906.484375.382813.726563.074219.140624.148437.28125.222656.421874.117187.21875.234375.441407.355469.660157.082031.152343.164062.300781.242187.453125.117188.214844.230469.425781.347657.640625.085937.15625.171874.316406.257812.472656.109375.199219.222656.402344.332031.605469.085938.160156.175781.316406.261719.46875.117188.210937.234375.421875.351562.632812.085938.152344.171876.300782.257813.453125.117187.207031.234375.414063.351563.621094.050781.089844.105468.183594.15625.273437 2.035156 3.5625 4.183593 7.054688 6.429687 10.472657.011719.015625.023437.03125.03125.046875.179687.273437.359375.546875.539063.816406.191406.285156.378906.566406.570312.847656.074219.113282.144531.222656.222656.328125.15625.234375.3125.464844.46875.695313.070313.105468.144532.210937.21875.320312.144532.207032.289063.414063.429688.625.09375.132813.1875.265625.277344.398438.144531.207031.292968.417968.441406.628906.082031.117188.160156.230469.242187.347656.15625.21875.3125.4375.464844.65625.082031.117188.164063.230469.246094.347656.152343.214844.308593.433594.464843.648438.082032.113281.160157.226562.242188.335938.15625.21875.3125.433593.46875.644531.085938.117187.167969.230469.253906.347656.089844.125.179688.246094.269532.371094 2.425781 3.304687 4.957031 6.53125 7.582031 9.675781.988281 1.183594 1.992187 2.355469 3.007812 3.515625.042969.050781.085938.097656.125.144531.214844.246094.429688.488282.644531.730469.054688.058594.105469.121094.160157.179687.214843.242188.429687.484376.644531.722657.050781.054687.097656.113281.148438.164062.21875.246094.441406.492188.664062.734375.046875.050782.09375.101563.136719.152344.222656.246094.445312.488281.667969.730469.050781.054687.097656.109375.148437.164062.140625.152344.277344.300781.417969.453125 2.789062 3.007813 5.667968 5.925782 8.636718 8.753906.828126.792969 1.664063 1.574219 2.507813 2.347657.023437.023437.046875.046875.074219.070312.253906.234375.507812.46875.765625.703125.039062.035156.082031.078125.125.113282.246093.222656.488281.441406.734375.664062.058594.054688.121094.105469.179687.160156.230469.207032.460938.414063.695313.621094.070312.066406.144531.128906.21875.195312.226562.199219.453125.402344.679687.597657.078125.070312.160157.140625.238281.207031.226563.199219.453126.398438.679688.597656.070312.058594.136719.117188.203125.175782.164063.140624.328125.285156.496094.429687v-.003906c3.109375 2.671875 6.300781 5.246093 9.574219 7.722656.5625.425781 1.125.847656 1.691406 1.265625.050781.035156.101562.074219.152344.113281.242187.179688.488281.355469.730468.535157.089844.066406.183594.132812.273438.199218.226562.167969.453125.332032.683594.496094.105468.074219.207031.148438.308593.222656l.65625.46875c.117188.085938.238281.167969.359375.253906.210938.152344.421875.300782.636719.453126.117187.082031.234375.167968.355469.25.210937.148437.421875.292968.628906.441406.136719.089844.269531.183594.402344.273437.203125.140625.402344.277344.605468.417969.132813.089844.265626.179688.398438.269531.148438.105469.300781.207031.453125.308594 3.390625 2.300781 6.859375 4.496094 10.394531 6.585937.101563.058594.195313.113282.292969.171876.242187.140624.484375.285156.726563.425781.140624.082031.277343.160156.417968.242187.21875.128906.441406.253906.664063.382813.140625.082031.285156.164062.433593.246093.210938.121094.425782.242188.636719.363282.152344.085937.304688.171875.457031.253906.210938.121094.425782.242188.636719.359375.140625.078125.285157.15625.429688.238281.222656.125.453125.25.679687.375.136719.074219.273438.152344.410156.222656.226563.125.453126.25.683594.375.140625.074219.277344.152344.417969.226563.230469.121094.464844.246094.695313.371094.128906.070312.261718.140625.390624.207031.25.132812.5.261719.75.394531.082032.042969.164063.085938.25.132813 4.007813 2.089844 8.09375 4.050781 12.257813 5.867187.007813.003907.015625.007813.019531.011719.378906.164062.753906.328125 1.132813.488281.046875.023438.09375.039063.140625.058594.34375.148437.6875.296875 1.03125.441406.050781.019531.097656.039063.148437.0625.335938.140625.671875.28125 1.011719.421875.066406.027344.132812.054688.199219.082032.324219.132812.644531.265624.96875.398437.070312.027344.144531.058594.214843.085937.316407.128907.636719.257813.953126.382813.082031.03125.160156.0625.242187.097656.316406.125.636719.25.953125.375.070312.027344.140625.054688.210938.082031.324218.125.648437.25.976562.378907.039062.015625.082031.03125.121094.046875 3.824218 1.464844 7.707031 2.816406 11.640625 4.042968.003906.003907.011719.003907.015625.007813 2.425781.757813 4.871094 1.46875 7.335937 2.136719.054688.011718.109375.027344.164063.042968.355468.09375.714844.1875 1.070312.28125.066406.019532.128906.035157.199219.054688.332031.085938.664063.171875.996094.257812.027343.003907.054687.011719.082031.019532 3.957031 1.015625 7.957031 1.90625 12.003906 2.675781.109375.019531.214844.039063.324219.058594.257813.050781.519531.097656.78125.148437.175781.03125.355469.0625.53125.09375.230469.042969.457031.085938.6875.125.1875.035156.378906.066406.5625.097656.230469.039063.457031.082032.6875.117188.179687.03125.363281.0625.542969.09375.230468.039062.460937.078125.691406.117188.195312.03125.390625.0625.585938.09375.214843.035156.429687.070312.644531.101562.199219.035156.398437.0625.601562.09375.214844.035156.4375.070312.65625.101562.195313.03125.390625.058594.589844.089844.214844.03125.429687.0625.648437.09375.207032.03125.417969.058594.625.089844.199219.027344.402344.054688.601563.085938.121094.015624.238281.03125.359375.046874 4.035156.550782 8.113281.980469 12.226562 1.285157.121094.007812.242188.015625.363282.023437.21875.015625.4375.03125.660156.046875.199219.015625.402344.027344.605469.039063.210937.015625.425781.027344.644531.042968.21875.011719.4375.027344.65625.039063.195312.011719.386719.019531.582031.03125.238281.015625.476563.027344.714844.039063.179687.011718.363281.019531.546875.027343.230469.011719.460938.023438.695312.035157.195313.007812.394532.019531.589844.027343.230469.007813.460938.019531.691406.027344.191407.007813.378907.011719.566407.023437.242187.007813.484375.015626.726562.023438.175781.007812.355469.011719.53125.015625.25.007813.5.015625.753907.023437.171874.003907.339843.007813.511718.015626.132813.003906.265625.007812.394532.007812 1.476562.03125 2.953124.046875 4.433593.046875 2.632813 0 5.253907-.050781 7.863281-.152344.210938-.007812.425782-.019531.636719-.027343.160157-.007813.320313-.015626.480469-.019532.285156-.011718.574219-.03125.859375-.042968.128906-.003907.257813-.011719.386719-.015626.289062-.015624.578125-.03125.863281-.046874.140625-.007813.277344-.015626.414063-.023438.269531-.015625.53125-.03125.796874-.046875.164063-.011719.332032-.023437.496094-.03125.257813-.015625.515625-.035156.773438-.050781.15625-.011719.3125-.023438.46875-.035156.265625-.015626.53125-.035157.796875-.054688.160156-.015625.316406-.027344.476562-.039062.253907-.019532.507813-.039063.761719-.058594.167969-.015625.335938-.027344.5-.042969.253906-.019531.503906-.042969.757812-.0625.164063-.015625.332032-.03125.5-.042969.082032-.007812.167969-.015625.253907-.023437v-.003907c4.105469-.371093 8.175781-.871093 12.203125-1.492187.175781-.027344.347656-.054687.523437-.082031.1875-.03125.378907-.058594.566407-.089844.207031-.03125.417968-.066406.625-.101562.21875-.035157.441406-.070313.660156-.105469.179687-.03125.359375-.0625.539062-.089844.234375-.042969.46875-.082031.703125-.121094.183594-.03125.367188-.0625.550781-.097656.230469-.039063.460938-.082031.691407-.121094.179687-.035156.355469-.066406.535156-.097656.238281-.046875.476563-.089844.714844-.132813.167969-.03125.335937-.0625.503906-.09375.246094-.046874.496094-.09375.742187-.144531.164063-.03125.328126-.0625.492188-.09375.253906-.050781.507812-.101562.761719-.152343.152343-.03125.300781-.0625.453125-.089844.261718-.054688.523437-.109375.785156-.164063.082031-.015625.160156-.03125.242188-.046875 4.03125-.839844 8.015624-1.800781 11.957031-2.882812.050781-.015625.101562-.027344.148437-.042969.285156-.078125.570313-.15625.851563-.234375.121093-.035156.242187-.070312.363281-.105469.296875-.082031.597656-.167969.894531-.253906.101563-.03125.203125-.058594.304688-.089844.332031-.09375.667969-.191406 1-.289062.0625-.019531.125-.039063.183593-.054688.363282-.109375.726563-.214843 1.089844-.328125.039063-.011718.078125-.023437.117188-.03125 5.578125-1.695312 11.046875-3.625 16.402344-5.785156.019531-.007812.039062-.015625.054687-.023438.355469-.144531.710937-.285156 1.066406-.429687.066407-.027344.136719-.058594.207031-.085937.316407-.132813.636719-.261719.953126-.394532.074218-.03125.148437-.0625.222656-.09375.304687-.128906.613281-.257812.921875-.390625.09375-.039062.1875-.078125.28125-.117187.289062-.125.578125-.25.867187-.375.09375-.042969.191406-.085938.285156-.125.285157-.125.570313-.25.851563-.375.105469-.042969.210937-.089844.316406-.136719.28125-.125.558594-.25.839844-.375.101563-.046875.203125-.09375.308594-.136719.277343-.128906.554687-.253906.835937-.378906.101563-.046875.203125-.09375.304688-.140625.289062-.132813.578125-.265625.867187-.398437.066407-.035157.132813-.0625.203125-.09375 3.722656-1.734376 7.378906-3.578126 10.96875-5.53125.054688-.027344.105469-.058594.15625-.085938.304688-.164062.609375-.332031.917969-.5.101563-.058594.203125-.113281.304687-.171875.261719-.144531.519532-.285156.777344-.429687.125-.074219.253906-.144532.378906-.21875.230469-.125.460938-.257813.6875-.386719.144532-.082031.289063-.164063.4375-.25.207032-.121094.421876-.242188.628907-.363281.160156-.089844.324219-.183594.484375-.277344.1875-.109375.378906-.222656.566406-.332032.171875-.101562.34375-.199218.515625-.304687.179687-.105469.363281-.210937.542969-.320313.179687-.105468.359375-.210937.535156-.316406.175781-.105468.347656-.210937.523438-.316406.175781-.105469.351562-.210938.527343-.316406.179688-.109375.359375-.21875.535157-.328125.117187-.070313.230468-.140625.34375-.207031 3.496093-2.144532 6.921874-4.394532 10.273437-6.75.269531-.191407.535156-.378907.804687-.570313.046876-.035156.09375-.066406.144532-.101563.25-.179687.5-.355468.746094-.535156.082031-.058594.160156-.113281.238281-.171875.234375-.164062.460937-.335937.695312-.5.101563-.074219.203125-.148437.304688-.222656.222656-.164063.445312-.324219.667969-.488281.105468-.078125.207031-.152344.3125-.230469.21875-.160156.4375-.324219.65625-.488281.109374-.082032.21875-.164063.328124-.246094.210938-.160156.421876-.316406.636719-.476562.113281-.085938.226563-.171876.339844-.257813.214844-.164063.425781-.328125.640625-.488281.105469-.082032.207031-.164063.316406-.242188.214844-.167968.433594-.335937.652344-.503906.097656-.078125.199219-.152344.296875-.230469.148437-.117187.296875-.230469.445313-.347656 3.230468-2.527344 6.378906-5.152344 9.441406-7.871094.839844-.746093 1.671875-1.5 2.496094-2.257812.035156-.035157.070312-.066407.109374-.097657.246094-.226562.488282-.453124.734376-.679687l.160156-.148437c.234375-.222657.472656-.445313.707031-.667969.058594-.054688.113281-.109375.171875-.160157.238281-.222656.472656-.445312.707031-.667968.050781-.050782.105469-.101563.160157-.152344.234374-.230469.472656-.457031.710937-.683594.050781-.050781.097656-.097656.148437-.144531.238282-.230469.476563-.457031.710938-.6875.050781-.050781.097656-.097656.148438-.148437.171874-.167969.34375-.335938.515624-.503907l-.003906-.003906c2.921875-2.878906 5.753906-5.84375 8.492188-8.898437.179687-.199219.359375-.402344.539062-.601563l.171875-.195313c.199219-.222656.394531-.445312.59375-.667968.070313-.082032.144531-.164063.210938-.246094.203125-.226562.402343-.457031.601562-.6875.0625-.070312.125-.140625.1875-.214844.195313-.226562.394531-.457031.589844-.683594.070313-.082031.140625-.160156.207031-.242187.199219-.234375.394532-.464844.59375-.699219.054688-.066406.113282-.132812.167969-.199218.207031-.246094.410156-.488282.617187-.734376.054688-.0625.105469-.125.160157-.191406.199219-.242187.402343-.484375.601562-.726562.054688-.066406.105469-.128906.160157-.191406.210937-.253907.417968-.507813.625-.761719.027343-.035157.054687-.070313.085937-.105469.175781-.21875.355469-.4375.53125-.65625h-.003906c2.574219-3.191406 5.054687-6.460938 7.429687-9.808594.148438-.210937.296875-.421875.445313-.632812.046875-.070313.09375-.132813.140625-.203125.160156-.226563.320312-.457031.480468-.683594.082032-.121094.164063-.242187.25-.363281.136719-.199219.273438-.398438.414063-.601563.09375-.140625.191406-.277343.285156-.417969.132813-.195312.265625-.390624.398438-.582031.101562-.152343.203125-.300781.304687-.449219.121094-.1875.246094-.367187.367188-.550781.109375-.167969.222656-.332031.332031-.5.117187-.175781.234375-.351562.351563-.527343.105468-.160157.214843-.324219.320312-.484376.121094-.183593.242188-.371093.359375-.554687.105469-.15625.207031-.316406.308594-.476563.125-.1875.246093-.375.367187-.5625.09375-.144531.183594-.289062.277344-.4375.105469-.160156.207031-.324218.316406-.492187 2.191406-3.460937 4.28125-6.992187 6.261719-10.597656.035156-.066407.074219-.132813.109375-.199219.152344-.273438.300781-.546875.449219-.824219.066406-.125.136719-.253906.207031-.378906.128906-.238281.253906-.476563.382812-.71875.066407-.128906.136719-.253906.203126-.382813.128906-.242187.253906-.480468.382812-.71875.066406-.132812.136719-.265624.207031-.398437.125-.238281.25-.480469.375-.71875.0625-.128906.128907-.257813.195313-.382813.125-.246093.253906-.492187.378906-.742187.0625-.121094.125-.246094.1875-.371094.128906-.25.253906-.5.378906-.753906.0625-.125.128906-.25.191406-.375.125-.25.25-.503906.375-.757813.058594-.117187.113282-.234374.171876-.351562.128906-.265625.257812-.527344.386718-.792969.039063-.085937.082032-.167969.125-.253906 1.785156-3.6875 3.457032-7.441406 5.007813-11.253906.039062-.085938.074219-.175781.109375-.265625.117187-.292969.238281-.582032.355468-.875.039063-.097656.078126-.199219.117188-.296875.117188-.292969.230469-.582031.347656-.875.039063-.097657.074219-.191407.113282-.285157.117187-.304687.234374-.605468.351562-.90625.03125-.085937.0625-.171874.097656-.253906.117188-.304687.230469-.605468.34375-.910156.042969-.105469.082032-.214844.125-.320312.105469-.285157.214844-.574219.320313-.863282.039062-.101562.078125-.207031.113281-.308594.109375-.300781.222656-.597656.332031-.898437.035157-.09375.066407-.183594.097657-.277344.109374-.300781.21875-.597656.324218-.898437.039063-.105469.078125-.210938.117188-.320313.097656-.28125.199218-.570312.296875-.851562.023437-.070313.050781-.136719.074219-.203125 1.34375-3.859375 2.570312-7.773438 3.675781-11.738282.003906-.011718.007812-.023437.011719-.035156.097656-.359375.199218-.71875.296874-1.082031.015626-.046875.027344-.101563.042969-.148437.101563-.375.203125-.75.300781-1.128907.007813-.027343.015626-.058593.023438-.089843.109375-.394532.210938-.792969.3125-1.1875.003906-.015626.007812-.027344.011719-.039063.421875-1.648437.828125-3.300781 1.210937-4.964844.011719-.042969.019532-.078125.027344-.121093.082031-.367188.167969-.738282.25-1.109376l.007812-.039062c.847657-3.792969 1.585938-7.625 2.210938-11.5h.003906c.015625-.109375.035156-.222656.050782-.335938.011718-.058593.019531-.117187.03125-.175781.003906-.023437.007812-.046875.011718-.070312 0-.007813 0-.015625.003906-.019531.007813-.046876.011719-.097657.019532-.144532.058594-.351562.109375-.703125.164062-1.050781.015625-.089844.027344-.179687.042969-.269531.046875-.316406.09375-.636719.140625-.953125.003906-.019531.003906-.042969.007812-.066407.003907-.027343.007813-.054687.015626-.082031.015624-.117187.03125-.234375.046874-.355469.035157-.238281.070313-.476562.101563-.71875.011719-.089843.027344-.183593.039063-.273437.015624-.097656.027343-.199219.039062-.296875.03125-.226562.0625-.449219.09375-.675781.007812-.074219.019531-.148438.03125-.21875.023438-.175781.042969-.351563.066406-.527344.019532-.144531.035156-.285156.054688-.429687.007812-.070313.015625-.144532.027344-.214844.007812-.054688.015624-.109375.019531-.160156.015625-.105469.027343-.210938.039062-.316407.027344-.210937.050781-.421875.078125-.636719 0-.015624.003906-.035156.003906-.054687.011719-.105469.027344-.210937.039063-.316406.011719-.078125.019531-.15625.027344-.234375.023437-.207032.050781-.417969.074219-.628906.003906-.03125.007812-.0625.007812-.09375.007812-.070313.015625-.140626.023438-.210938.011718-.109375.027343-.226562.039062-.335938.023438-.242187.050781-.480468.078125-.722656.019531-.203125.042969-.410156.0625-.613281.023437-.222656.042969-.4375.066406-.660156.019531-.222657.042969-.441407.066407-.664063.019531-.210937.039062-.421875.058593-.632812.023438-.230469.042969-.460938.066407-.691406.015624-.183594.03125-.367188.046874-.546876.019532-.261718.046876-.523437.066407-.785156.007812-.121094.019531-.246094.027343-.371094.128907-1.546874.234376-3.101562.324219-4.660156 0-.015625 0-.03125 0-.046875.023438-.398437.046875-.796875.066407-1.199219 0-.023437 0-.046874.003906-.070312.019531-.371094.035156-.746094.054687-1.117188 0-.066406.003907-.128906.007813-.195312.015625-.363281.03125-.734375.042968-1.097656.003907-.058594.003907-.113282.007813-.167969.011719-.382813.027344-.761719.039063-1.144531.003906-.035156.003906-.066406.003906-.105469.011718-.398437.023437-.800781.035156-1.203125 0-.003906 0-.015625 0-.019531.042969-1.6875.066406-3.378907.066406-5.078125 0-14.574219-1.585937-28.789063-4.589844-42.46875zm0 0"/><path d="m237.371094 27.175781 1.066406-4.882812-1.0625 4.886719c1.585938.34375 3.164062.710937 4.738281 1.097656l2.394531-9.707032c-1.660156-.410156-3.328124-.796874-5.003906-1.164062-6.8125-1.488281-13.75-2.621094-20.800781-3.382812-7.050781-.765626-14.210937-1.15625-21.460937-1.15625v10c6.890624 0 13.691406.371093 20.386718 1.097656 6.691406.722656 13.28125 1.796875 19.742188 3.210937zm0 0"/><path d="m353.824219 107.480469c1.777343 2.707031 3.484375 5.464843 5.121093 8.265625l8.632813-5.042969c-1.722656-2.953125-3.523437-5.855469-5.390625-8.710937zm0 0"/><path d="m364.515625 126.003906c1.453125 2.886719 2.832031 5.820313 4.136719 8.792969l9.15625-4.019531c-1.375-3.132813-2.832032-6.222656-4.359375-9.265625zm0 0"/><path d="m14.558594 169.238281-9.761719-2.167969c-.738281 3.324219-1.394531 6.679688-1.960937 10.0625l9.859374 1.65625c.539063-3.214843 1.160157-6.398437 1.863282-9.550781zm0 0"/><path d="m10.367188 200.066406c.167968-3.257812.421874-6.496094.757812-9.707031l-9.945312-1.035156c-.355469 3.382812-.621094 6.789062-.800782 10.21875zm0 0"/><path d="m324.226562 59.207031c-2.609374-2.203125-5.28125-4.335937-8.003906-6.402343l-6.042968 7.96875c2.589843 1.960937 5.121093 3.988281 7.601562 6.082031zm0 0"/><path d="m333.339844 81.554688 7.269531-6.867188c-2.34375-2.484375-4.753906-4.90625-7.226563-7.265625l-6.90625 7.230469c2.34375 2.242187 4.632813 4.542968 6.863282 6.902344zm0 0"/><path d="m347.117188 97.925781 8.003906-5.996093c-2.050782-2.734376-4.167969-5.414063-6.351563-8.039063l-7.683593 6.398437c2.074218 2.492188 4.085937 5.035157 6.03125 7.636719zm0 0"/><path d="m266.066406 25.210938c-3.195312-1.191407-6.433594-2.304688-9.710937-3.328126l-2.992188 9.542969c3.105469.972657 6.179688 2.027344 9.210938 3.160157zm0 0"/><path d="m306.191406 45.679688c-2.84375-1.890626-5.742187-3.707032-8.6875-5.453126l-5.09375 8.609376c2.796875 1.652343 5.546875 3.378906 8.246094 5.175781zm0 0"/><path d="m286.722656 34.292969c-3.042968-1.550781-6.128906-3.027344-9.261718-4.421875l-4.070313 9.132812c2.96875 1.324219 5.898437 2.722656 8.785156 4.199219zm0 0"/></g><path d="m411.539062 175.039062c-6.589843 0-11.949218-5.359374-11.949218-11.949218 0-5.5-4.460938-9.960938-9.960938-9.960938s-9.960937 4.460938-9.960937 9.960938c0 6.589844-5.363281 11.949218-11.953125 11.949218-5.5 0-9.957032 4.460938-9.957032 9.960938s4.457032 9.960938 9.957032 9.960938c6.589844 0 11.953125 5.359374 11.953125 11.949218 0 5.5 4.460937 9.960938 9.960937 9.960938s9.960938-4.460938 9.960938-9.960938c0-6.589844 5.359375-11.949218 11.949218-11.949218 5.5 0 9.960938-4.460938 9.960938-9.960938s-4.460938-9.960938-9.960938-9.960938zm0 0" fill="#ffcc34"/><path d="m422.117188 174.421875c-2.691407-2.699219-6.460938-4.386719-10.578126-4.382813-1.925781 0-3.632812-.769531-4.910156-2.039062-1.269531-1.277344-2.039062-2.984375-2.039062-4.910156 0-4.117188-1.683594-7.886719-4.382813-10.578125-2.691406-2.703125-6.464843-4.386719-10.578125-4.382813-4.117187-.003906-7.890625 1.679688-10.578125 4.382813-2.699219 2.691406-4.386719 6.460937-4.382812 10.578125-.003907 1.921875-.769531 3.632812-2.039063 4.910156-1.277344 1.269531-2.988281 2.039062-4.914062 2.039062-4.113282 0-7.886719 1.683594-10.578125 4.382813-2.699219 2.691406-4.382813 6.460937-4.378907 10.578125-.003906 4.117188 1.679688 7.886719 4.378907 10.578125 2.691406 2.699219 6.464843 4.386719 10.578125 4.382813 1.925781 0 3.636718.769531 4.914062 2.039062 1.269532 1.277344 2.035156 2.984375 2.039063 4.910156-.003907 4.117188 1.683593 7.886719 4.382812 10.578125 2.691407 2.703125 6.460938 4.386719 10.578125 4.382813 4.113282.003906 7.886719-1.683594 10.578125-4.382813 2.699219-2.691406 4.382813-6.460937 4.382813-10.578125 0-1.921875.769531-3.632812 2.039062-4.910156 1.277344-1.269531 2.984375-2.039062 4.910156-2.039062 4.117188 0 7.890626-1.683594 10.578126-4.382813 2.699218-2.691406 4.386718-6.460937 4.382812-10.578125.003906-4.117188-1.683594-7.886719-4.382812-10.578125zm-7.070313 14.085937c-.914063.90625-2.121094 1.449219-3.507813 1.453126-4.664062 0-8.929687 1.910156-11.984374 4.96875-3.058594 3.050781-4.96875 7.316406-4.964844 11.980468-.003906 1.386719-.550782 2.597656-1.457032 3.511719-.914062.902344-2.121093 1.449219-3.503906 1.453125-1.386718-.003906-2.59375-.550781-3.507812-1.453125-.90625-.914063-1.449219-2.125-1.453125-3.511719.003906-4.664062-1.910157-8.929687-4.96875-11.980468-3.050781-3.058594-7.316407-4.96875-11.984375-4.96875-1.382813 0-2.589844-.546876-3.503906-1.453126-.90625-.914062-1.449219-2.125-1.453126-3.507812 0-1.382812.546876-2.59375 1.453126-3.507812.914062-.90625 2.121093-1.449219 3.503906-1.453126 4.667968 0 8.933594-1.910156 11.984375-4.96875 3.058593-3.050781 4.972656-7.316406 4.96875-11.980468.003906-1.386719.546875-2.597656 1.453125-3.511719.914062-.902344 2.121094-1.449219 3.507812-1.453125 1.382813.003906 2.589844.550781 3.503906 1.453125.90625.914063 1.453126 2.125 1.457032 3.511719-.003906 4.664062 1.90625 8.929687 4.964844 11.980468 3.054687 3.058594 7.320312 4.96875 11.984374 4.96875 1.386719 0 2.59375.546876 3.507813 1.453126.90625.914062 1.449219 2.125 1.453125 3.507812-.003906 1.382812-.546875 2.59375-1.453125 3.507812zm0 0" fill="#122436"/><path d="m67.511719 61.3125c-50.386719 50.386719-50.386719 132.078125 0 182.464844 50.386719 50.382812 132.078125 50.382812 182.464843 0 50.386719-50.386719 50.386719-132.078125 0-182.464844-50.386718-50.382812-132.078124-50.382812-182.464843 0zm155.746093 155.742188c-35.628906 35.628906-93.394531 35.628906-129.023437 0-35.628906-35.625-35.628906-93.390626 0-129.019532 35.628906-35.632812 93.394531-35.632812 129.023437 0 35.625 35.628906 35.625 93.394532 0 129.019532zm0 0" fill="#ffcc34"/><path d="m67.511719 77.3125c50.386719-50.382812 132.082031-50.382812 182.464843 0 23.15625 23.15625 35.667969 52.929688 37.542969 83.234375 2.199219-35.632813-10.316406-72.003906-37.542969-99.234375-50.386718-50.382812-132.078124-50.382812-182.464843 0-27.226563 27.230469-39.742188 63.601562-37.542969 99.234375 1.875-30.304687 14.386719-60.078125 37.542969-83.234375zm0 0" fill="#fff"/><path d="m94.234375 233.054688c35.628906 35.628906 93.394531 35.628906 129.023437 0 19.851563-19.847657 28.636719-46.570313 26.371094-72.507813-1.804687 20.613281-10.59375 40.730469-26.371094 56.507813-35.628906 35.628906-93.394531 35.628906-129.023437 0-15.777344-15.777344-24.570313-35.894532-26.371094-56.507813-2.269531 25.9375 6.519531 52.660156 26.371094 72.507813zm0 0" fill="#fff"/><path d="m249.976562 243.78125c-5.617187 5.617188-11.625 10.605469-17.9375 14.96875l100.90625 100.90625c9.015626 9.015625 23.675782 9.128906 32.699219.125l.167969-.167969.164062-.167969c9.003907-9.023437 8.894532-23.683593-.121093-32.699218l-100.90625-100.90625c-4.363281 6.308594-9.351563 12.320312-14.972657 17.941406zm0 0" fill="#ffcc34"/><path d="m365.855469 326.746094-100.90625-100.90625c-3.203125 4.632812-6.746094 9.101562-10.625 13.375l99.53125 99.53125c6.957031 6.960937 8.613281 17.28125 4.863281 25.777344 2.511719-1.109376 4.867188-2.6875 6.925781-4.742188l.332031-.332031c9.007813-9.027344 8.894532-23.6875-.121093-32.703125zm0 0" fill="#fff"/><path d="m223.257812 217.054688c-35.628906 35.628906-93.394531 35.628906-129.023437 0-35.628906-35.625-35.628906-93.390626 0-129.019532 35.628906-35.632812 93.394531-35.632812 129.023437 0 35.625 35.628906 35.625 93.394532 0 129.019532zm0 0" fill="#4ea3da"/><path d="m253.511719 57.777344c-26.15625-26.160156-60.484375-39.257813-94.769531-39.253906-34.28125-.003907-68.609376 13.09375-94.765626 39.253906-26.160156 26.15625-39.261718 60.484375-39.253906 94.769531-.007812 34.28125 13.09375 68.609375 39.253906 94.765625 26.15625 26.160156 60.484376 39.257812 94.765626 39.253906 34.285156.003906 68.613281-13.09375 94.769531-39.253906 26.160156-26.15625 39.261719-60.484375 39.253906-94.765625.007813-34.28125-13.09375-68.613281-39.253906-94.769531zm-7.070313 182.464844c-24.230468 24.226562-55.9375 36.320312-87.699218 36.324218-31.753907-.003906-63.464844-12.097656-87.695313-36.324218-24.226563-24.226563-36.320313-55.9375-36.324219-87.695313.003906-31.757813 12.097656-63.46875 36.324219-87.695313l-3.535156-3.539062 3.535156 3.539062c24.230469-24.226562 55.941406-36.320312 87.695313-36.328124 31.757812.007812 63.46875 12.097656 87.699218 36.328124 24.226563 24.226563 36.320313 55.9375 36.324219 87.695313-.003906 31.753906-12.097656 63.46875-36.324219 87.695313zm0 0" fill="#122436"/><path d="m226.792969 84.5c-18.777344-18.78125-43.433594-28.191406-68.046875-28.1875-24.613282-.003906-49.269532 9.40625-68.046875 28.1875-18.886719 18.882812-28.191407 43.703125-28.183594 68.410156-.003906 24.515625 9.507813 49.011719 28.183594 67.683594 18.777343 18.777344 43.433593 28.191406 68.046875 28.183594 24.613281.007812 49.269531-9.402344 68.046875-28.183594 18.777343-18.777344 28.191406-43.4375 28.183593-68.046875.003907-24.609375-9.40625-49.269531-28.183593-68.046875zm-7.074219 129.019531c-16.847656 16.847657-38.890625 25.253907-60.976562 25.257813-22.085938-.003906-44.125-8.410156-60.972657-25.257813-16.769531-16.769531-25.253906-38.667969-25.257812-60.609375.007812-22.230468 8.332031-44.410156 25.257812-61.339844 16.847657-16.847656 38.886719-25.253906 60.972657-25.257812 22.085937.003906 44.125 8.410156 60.976562 25.257812 16.847656 16.851563 25.253906 38.890626 25.257812 60.976563-.003906 22.085937-8.410156 44.125-25.257812 60.972656zm0 0" fill="#122436"/><path d="m249.976562 243.78125-3.535156-3.539062c-5.402344 5.40625-11.179687 10.199218-17.246094 14.394531l-4.929687 3.410156 105.144531 105.144531c5.5 5.503906 12.769532 8.289063 19.996094 8.285156 7.132812.003907 14.320312-2.714843 19.773438-8.15625l-.007813.003907.167969-.164063.1875-.1875-.007813.003906c5.441407-5.449218 8.164063-12.636718 8.15625-19.765624.003907-7.230469-2.78125-14.496094-8.285156-20l-105.144531-105.144532-3.40625 4.929688c-4.199219 6.066406-8.992188 11.847656-14.398438 17.25l3.535156 3.535156 3.539063 3.535156c5.832031-5.835937 11.011719-12.078125 15.546875-18.628906l-4.113281-2.84375-3.535157 3.535156 100.90625 100.90625c3.570313 3.570313 5.351563 8.234375 5.355469 12.925782-.003906 4.628906-1.730469 9.1875-5.234375 12.703124l-.007812.007813-.164063.167969.019531-.019532-.167968.164063-.003906.007813c-3.519532 3.503906-8.078126 5.230468-12.710938 5.234374-4.6875-.003906-9.351562-1.785156-12.925781-5.351562l-100.90625-100.90625-3.535157 3.535156 2.84375 4.113282c6.554688-4.535157 12.796876-9.71875 18.628907-15.546876zm0 0" fill="#122436"/><path d="m159.789062 356.558594 37.453126-21.621094 37.453124 21.621094v43.246094l-37.453124 21.625-37.453126-21.625zm0 0" fill="#4ea3da"/><path d="m197.242188 329.160156-42.453126 24.511719v49.019531l42.453126 24.511719 42.453124-24.511719v-49.019531zm32.453124 67.757813-32.453124 18.738281-32.453126-18.738281v-37.472657l32.453126-18.734374 32.453124 18.734374zm0 0" fill="#122436"/><path d="m191.421875 397.632812-15.976563-15.976562 7.214844-7.210938 8.761719 8.761719 19.984375-19.984375 7.214844 7.214844zm0 0" fill="#fff"/><path d="m158.742188 77.984375c-10.914063 0-19.765626-8.851563-19.765626-19.765625 0-10.917969 8.851563-19.769531 19.765626-19.769531 10.917968 0 19.769531 8.851562 19.769531 19.769531 0 10.914062-8.851563 19.765625-19.769531 19.765625zm0 0" fill="#4ea3da"/><path d="m158.742188 50.453125c8.828124 0 16.300781 5.78125 18.839843 13.765625.601563-1.890625.929688-3.90625.929688-6 0-10.917969-8.851563-19.765625-19.769531-19.765625-10.914063 0-19.765626 8.847656-19.765626 19.765625 0 2.09375.328126 4.109375.929688 6 2.539062-7.984375 10.015625-13.765625 18.835938-13.765625zm0 0" fill="#fff"/><path d="m158.742188 5c-29.390626 0-53.214844 23.824219-53.214844 53.21875 0 29.390625 53.214844 148.644531 53.214844 148.644531s53.21875-119.253906 53.21875-148.644531c0-29.394531-23.824219-53.21875-53.21875-53.21875zm0 72.984375c-10.914063 0-19.765626-8.851563-19.765626-19.765625 0-10.917969 8.851563-19.769531 19.765626-19.769531 10.917968 0 19.769531 8.851562 19.769531 19.769531 0 10.914062-8.851563 19.765625-19.769531 19.765625zm0 0" fill="#fff"/><path d="m158.742188 33.453125c-13.679688 0-24.761719 11.085937-24.765626 24.765625.003907 13.679688 11.085938 24.761719 24.765626 24.765625 13.683593-.003906 24.765624-11.085937 24.769531-24.765625-.003907-13.679688-11.085938-24.765625-24.769531-24.765625zm10.445312 35.207031c-2.691406 2.679688-6.347656 4.320313-10.445312 4.324219-4.09375-.003906-7.753907-1.644531-10.441407-4.324219-2.679687-2.6875-4.320312-6.347656-4.324219-10.441406 0-4.09375 1.644532-7.753906 4.324219-10.441406 2.6875-2.679688 6.347657-4.320313 10.441407-4.324219 4.097656 0 7.753906 1.644531 10.445312 4.324219 2.679688 2.6875 4.320312 6.347656 4.324219 10.441406-.003907 4.09375-1.644531 7.753906-4.324219 10.441406zm0 0" fill="#122436"/><path d="m158.742188 0c-32.152344.00390625-58.210938 26.0625-58.214844 58.21875.011718 4.402344.929687 9.707031 2.421875 15.988281 2.628906 10.957031 7.128906 24.742188 12.417969 39.382813 15.847656 43.867187 38.785156 95.253906 38.8125 95.3125.800781 1.804687 2.589843 2.960937 4.5625 2.960937 1.976562 0 3.761718-1.15625 4.566406-2.960937.015625-.039063 13.339844-29.890625 26.691406-63.496094 6.675781-16.800781 13.359375-34.535156 18.398438-50.015625 2.523437-7.742187 4.636718-14.917969 6.136718-21.183594 1.496094-6.28125 2.410156-11.585937 2.425782-15.988281 0-32.15625-26.0625-58.21484375-58.21875-58.21875zm46.070312 71.878906c-2.464844 10.304688-6.875 23.875-12.09375 38.3125-7.828125 21.671875-17.476562 45.359375-25.152344 63.601563-3.449218 8.199219-6.503906 15.296875-8.820312 20.628906-5.511719-12.679687-15.1875-35.359375-24.445313-58.996094-6.1875-15.804687-12.183593-32.042969-16.605469-45.941406-2.210937-6.949219-4.027343-13.3125-5.273437-18.695313-1.25-5.367187-1.902344-9.8125-1.890625-12.570312 0-13.332031 5.390625-25.351562 14.121094-34.09375 8.742187-8.734375 20.761718-14.121094 34.09375-14.121094 13.332031 0 25.355468 5.386719 34.097656 14.121094 8.730469 8.742188 14.117188 20.761719 14.121094 34.09375.011718 2.945312-.738282 7.796875-2.152344 13.660156zm0 0" fill="#122436"/></svg>